<?xml version="1.0" encoding="UTF-8"?>
<svg id="Layer_2" data-name="Layer 2" xmlns="http://www.w3.org/2000/svg" viewBox="0 0 92.85 68.22">
  <defs>
    <style>
      .cls-1 {
        fill: #39b54a;
      }

      .cls-2 {
        fill: #eaeaea;
      }
    </style>
  </defs>
  <g id="Layer_1-2" data-name="Layer 1">
    <g>
      <path class="cls-1" d="m18.47.34c1.29-.23,2.59-.34,3.88-.34v6.08c-1.06,0-2.11.18-3.15.52-1.04.35-1.91.91-2.63,1.7-.72.78-1.21,1.69-1.49,2.73-.27,1.04-.41,2.09-.41,3.15v8.79c0,1.06-.07,2.1-.21,3.11-.14,1.01-.4,2.01-.8,2.97-.39.97-.88,1.9-1.48,2.77-.6.88-1.32,1.64-2.15,2.28.83.65,1.55,1.41,2.15,2.29s1.09,1.8,1.48,2.77c.4.96.66,1.96.8,2.97.14,1.02.21,2.05.21,3.11v8.79c0,1.06.14,2.11.41,3.15.28,1.04.77,1.95,1.49,2.73.72.79,1.59,1.35,2.63,1.7,1.04.34,2.09.52,3.15.52v6.09c-1.29,0-2.59-.12-3.88-.35-1.29-.23-2.51-.62-3.66-1.18-1.16-.55-2.21-1.28-3.15-2.18-.95-.9-1.72-1.91-2.32-3.04-.6-1.13-1.03-2.33-1.28-3.6-.25-1.27-.38-2.55-.38-3.84v-8.79c0-1.06-.14-2.11-.42-3.14-.27-1.04-.77-1.95-1.48-2.74-.72-.78-1.59-1.35-2.63-1.69-1.04-.35-2.09-.52-3.15-.52v-6.09c1.06,0,2.11-.17,3.15-.52,1.04-.34,1.91-.91,2.63-1.69.71-.79,1.21-1.7,1.48-2.74.28-1.03.42-2.08.42-3.14v-8.79c0-1.29.13-2.57.38-3.84s.68-2.47,1.28-3.6c.6-1.13,1.37-2.14,2.32-3.04.94-.9,1.99-1.63,3.15-2.18,1.15-.56,2.37-.95,3.66-1.18Z"/>
      <path class="cls-1" d="m92.85,31.06v6.09c-1.06,0-2.11.17-3.15.52-1.03.34-1.91.91-2.63,1.69-.71.79-1.21,1.7-1.48,2.74-.28,1.03-.42,2.08-.42,3.14v8.79c0,1.29-.13,2.57-.38,3.84-.25,1.27-.68,2.47-1.28,3.6-.6,1.13-1.37,2.14-2.32,3.04-.94.9-1.99,1.63-3.14,2.18-1.16.56-2.38.95-3.67,1.18-1.29.23-2.59.35-3.88.35v-6.09c1.06,0,2.11-.18,3.15-.52,1.04-.35,1.92-.91,2.63-1.7.72-.78,1.21-1.69,1.49-2.73.28-1.04.41-2.09.41-3.15v-8.79c0-1.06.07-2.09.21-3.11.14-1.01.4-2.01.8-2.97.39-.97.88-1.89,1.48-2.77.6-.88,1.32-1.64,2.15-2.29-.83-.64-1.55-1.4-2.15-2.28-.6-.87-1.09-1.8-1.48-2.77-.4-.96-.66-1.96-.8-2.97-.14-1.01-.21-2.05-.21-3.11v-8.79c0-1.06-.13-2.11-.41-3.15-.28-1.04-.77-1.95-1.49-2.73-.71-.79-1.59-1.35-2.63-1.7-1.04-.34-2.09-.52-3.15-.52V0c1.29,0,2.59.11,3.88.34s2.51.62,3.67,1.18c1.15.55,2.2,1.28,3.14,2.18.95.9,1.72,1.91,2.32,3.04.6,1.13,1.03,2.33,1.28,3.6s.38,2.55.38,3.84v8.79c0,1.06.14,2.11.42,3.14.27,1.04.77,1.95,1.48,2.74.72.78,1.6,1.35,2.63,1.69,1.04.35,2.09.52,3.15.52Z"/>
      <path class="cls-2" d="m37.78,57.63v-6.09h5.19V12.86h-4.22v4.91h-5.88V6.78h27.12v11h-5.88v-4.91h-4.22v38.68h5.19v6.09h-17.3Z"/>
    </g>
  </g>
</svg>
