<?xml version="1.0" encoding="utf-8"?>
<!-- Generator: Adobe Illustrator 27.5.0, SVG Export Plug-In . SVG Version: 6.00 Build 0)  -->
<svg version="1.1" id="Layer_1" xmlns="http://www.w3.org/2000/svg" xmlns:xlink="http://www.w3.org/1999/xlink" x="0px" y="0px"
	 viewBox="0 0 2048 2048" style="enable-background:new 0 0 2048 2048;" xml:space="preserve">
<style type="text/css">
	.st0{fill:#39B54A;stroke:#000000;stroke-width:2;stroke-miterlimit:10;}
	.st1{fill:#EAEAEA;stroke:#000000;stroke-width:2;stroke-miterlimit:10;}
</style>
<g id="Layer_1-2">
	<g>
		<path class="st0" d="M427.6,262.2c27.5-4.9,55.3-7.3,82.8-7.3v129.8c-22.6,0-45,3.8-67.2,11.1c-22.2,7.5-40.8,19.4-56.1,36.3
			c-15.4,16.6-25.8,36.1-31.8,58.3c-5.8,22.2-8.7,44.6-8.7,67.2v187.6c0,22.6-1.5,44.8-4.5,66.4c-3,21.6-8.5,42.9-17.1,63.4
			c-8.3,20.7-18.8,40.5-31.6,59.1c-12.8,18.8-28.2,35-45.9,48.7c17.7,13.9,33.1,30.1,45.9,48.9c12.8,18.8,23.3,38.4,31.6,59.1
			c8.5,20.5,14.1,41.8,17.1,63.4c3,21.8,4.5,43.7,4.5,66.4v187.6c0,22.6,3,45,8.7,67.2c6,22.2,16.4,41.6,31.8,58.3
			c15.4,16.9,33.9,28.8,56.1,36.3c22.2,7.3,44.6,11.1,67.2,11.1v130c-27.5,0-55.3-2.6-82.8-7.5c-27.5-4.9-53.6-13.2-78.1-25.2
			c-24.8-11.7-47.2-27.3-67.2-46.5c-20.3-19.2-36.7-40.8-49.5-64.9c-12.8-24.1-22-49.7-27.3-76.8s-8.1-54.4-8.1-82v-187.6
			c0-22.6-3-45-9-67c-5.8-22.2-16.4-41.6-31.6-58.5c-15.4-16.6-33.9-28.8-56.1-36.1c-22.2-7.5-44.6-11.1-67.2-11.1v-130
			c22.6,0,45-3.6,67.2-11.1c22.2-7.3,40.8-19.4,56.1-36.1c15.2-16.9,25.8-36.3,31.6-58.5c6-22,9-44.4,9-67V557.6
			c0-27.5,2.8-54.8,8.1-82c5.3-27.1,14.5-52.7,27.3-76.8c12.8-24.1,29.2-45.7,49.5-64.9c20.1-19.2,42.5-34.8,67.2-46.5
			C374.1,275.5,400.1,267.2,427.6,262.2z"/>
		<path class="st0" d="M2015,917.9v130c-22.6,0-45,3.6-67.2,11.1c-22,7.3-40.8,19.4-56.1,36.1c-15.2,16.9-25.8,36.3-31.6,58.5
			c-6,22-9,44.4-9,67v187.6c0,27.5-2.8,54.8-8.1,82c-5.3,27.1-14.5,52.7-27.3,76.8c-12.8,24.1-29.2,45.7-49.5,64.9
			c-20.1,19.2-42.5,34.8-67,46.5c-24.8,12-50.8,20.3-78.3,25.2s-55.3,7.5-82.8,7.5v-130c22.6,0,45-3.8,67.2-11.1
			c22.2-7.5,41-19.4,56.1-36.3c15.4-16.6,25.8-36.1,31.8-58.3c6-22.2,8.8-44.6,8.8-67.2v-187.6c0-22.6,1.5-44.6,4.5-66.4
			c3-21.6,8.5-42.9,17.1-63.4c8.3-20.7,18.8-40.3,31.6-59.1c12.8-18.8,28.2-35,45.9-48.9c-17.7-13.7-33.1-29.9-45.9-48.7
			c-12.8-18.6-23.3-38.4-31.6-59.1c-8.5-20.5-14.1-41.8-17.1-63.4c-3-21.6-4.5-43.7-4.5-66.4V557.6c0-22.6-2.8-45-8.8-67.2
			c-6-22.2-16.4-41.6-31.8-58.3c-15.2-16.9-33.9-28.8-56.1-36.3c-22.2-7.3-44.6-11.1-67.2-11.1V255c27.5,0,55.3,2.3,82.8,7.3
			c27.5,4.9,53.6,13.2,78.3,25.2c24.5,11.7,47,27.3,67,46.5c20.3,19.2,36.7,40.8,49.5,64.9s22,49.7,27.3,76.8
			c5.3,27.1,8.1,54.4,8.1,82v187.6c0,22.6,3,45,9,67c5.8,22.2,16.4,41.6,31.6,58.5c15.4,16.6,34.1,28.8,56.1,36.1
			C1970,914.2,1992.4,917.9,2015,917.9z"/>
		<path class="st1" d="M839.7,1484.9v-130h110.8V529.4h-90.1v104.8H735V399.7h578.8v234.8h-125.5V529.7h-90.1v825.5h110.8v130H839.7
			L839.7,1484.9z"/>
	</g>
</g>
</svg>
